<svg width="24" height="24" viewBox="0 0 24 24" fill="none" xmlns="http://www.w3.org/2000/svg">
<mask id="mask0_2_168" style="mask-type:alpha" maskUnits="userSpaceOnUse" x="0" y="0" width="24" height="24">
<rect width="24" height="24" fill="#D9D9D9"/>
</mask>
<g mask="url(#mask0_2_168)">
<path d="M18.6923 18.5H8.3077C7.80257 18.5 7.375 18.325 7.025 17.975C6.675 17.625 6.5 17.1974 6.5 16.6923V3.30773C6.5 2.8026 6.675 2.37503 7.025 2.02503C7.375 1.67503 7.80257 1.50003 8.3077 1.50003H15.25L20.5 6.74998V16.6923C20.5 17.1974 20.325 17.625 19.975 17.975C19.625 18.325 19.1974 18.5 18.6923 18.5ZM14.5 7.49998V3.00001H8.3077C8.23077 3.00001 8.16024 3.03206 8.09613 3.09616C8.03203 3.16027 7.99998 3.2308 7.99998 3.30773V16.6923C7.99998 16.7692 8.03203 16.8397 8.09613 16.9039C8.16024 16.968 8.23077 17 8.3077 17H18.6923C18.7692 17 18.8397 16.968 18.9038 16.9039C18.9679 16.8397 19 16.7692 19 16.6923V7.49998H14.5ZM4.3077 22.5C3.80257 22.5 3.375 22.325 3.025 21.975C2.675 21.625 2.5 21.1974 2.5 20.6923V7.50003H3.99998V20.6923C3.99998 20.7692 4.03202 20.8397 4.09613 20.9039C4.16024 20.968 4.23077 21 4.3077 21H14.5V22.5L4.3077 22.5Z" fill="#676C80"/>
</g>
</svg>
