<svg width="300" height="92" viewBox="0 0 300 92" fill="none" xmlns="http://www.w3.org/2000/svg">
<path d="M266.308 30.713H266.134C265.156 30.713 264.218 31.0993 263.527 31.7868C262.835 32.4742 262.446 33.4067 262.446 34.3789C262.446 35.3512 262.835 36.2836 263.527 36.9711C264.218 37.6586 265.156 38.0448 266.134 38.0448H266.308C267.286 38.0448 268.224 37.6586 268.916 36.9711C269.608 36.2836 269.996 35.3512 269.996 34.3789C269.996 33.4067 269.608 32.4742 268.916 31.7868C268.224 31.0993 267.286 30.713 266.308 30.713ZM263.076 60.975H269.366V42.622H263.076V60.975ZM199.877 60.975H218.34V54.7229H199.877V60.975ZM253.316 53.6877V30.713H247.002V33.6866C244.658 31.9903 241.879 30.9895 238.987 30.8002C236.094 30.611 233.207 31.2411 230.66 32.6174C228.113 33.9938 226.011 36.0599 224.599 38.576C223.186 41.092 222.52 43.9548 222.678 46.832C222.836 49.7093 223.812 52.4829 225.492 54.831C227.172 57.179 229.488 59.0052 232.171 60.0976C234.853 61.1899 237.792 61.5036 240.647 61.0022C243.501 60.5008 246.154 59.2049 248.298 57.265C249.034 58.4034 250.046 59.3398 251.241 59.9881C252.436 60.6365 253.776 60.9759 255.138 60.9754H257.953V55.3052H254.943C254.73 55.3052 254.518 55.2634 254.32 55.1822C254.123 55.1009 253.944 54.9817 253.793 54.8315C253.641 54.6813 253.522 54.503 253.44 54.3068C253.358 54.1105 253.316 53.9002 253.316 53.6877ZM237.991 54.958C236.209 54.958 234.466 54.4327 232.984 53.4485C231.503 52.4643 230.348 51.0654 229.666 49.4286C228.984 47.7919 228.805 45.9909 229.153 44.2534C229.5 42.5159 230.359 40.9198 231.619 39.6671C232.879 38.4144 234.485 37.5613 236.233 37.2157C237.981 36.87 239.792 37.0474 241.439 37.7253C243.086 38.4032 244.493 39.5513 245.483 41.0243C246.473 42.4973 247.002 44.2291 247.002 46.0006C246.999 48.3754 246.049 50.6521 244.36 52.3313C242.67 54.0106 240.38 54.9551 237.991 54.9578V54.958ZM73.87 30.713C65.61 30.713 58.8901 37.5711 58.8901 46.0007C58.8901 54.4303 65.61 61.2884 73.87 61.2884C77.7252 61.2884 81.615 60.1531 84.2766 57.7066L80.3835 53.1605C78.5352 54.6766 76.7195 55.2971 73.8702 55.2971C69.2647 55.2971 66.3231 52.6566 65.3119 48.9962L88.5598 48.9969C88.753 48.0097 88.8504 47.0064 88.8505 46.0007C88.8502 37.5711 82.13 30.713 73.87 30.713ZM65.2607 43.3352C65.7211 41.4204 66.8256 39.7192 68.3912 38.5134C69.9568 37.3075 71.8897 36.6692 73.87 36.7042C75.8589 36.6404 77.8079 37.2676 79.382 38.4778C80.956 39.688 82.0565 41.4056 82.4943 43.3352H65.2607ZM52.4992 52.229H52.4971C51.228 53.5401 49.5883 54.4372 47.7949 54.8015C46.0016 55.1658 44.1392 54.9802 42.4544 54.2693C40.7695 53.5583 39.3415 52.3555 38.3595 50.8201C37.3775 49.2846 36.8877 47.489 36.955 45.6707C37.0195 43.9234 37.5956 42.2327 38.6127 40.8061C39.6299 39.3795 41.0438 38.2791 42.681 37.6397C44.3182 37.0003 46.1076 36.8498 47.8296 37.2066C49.5516 37.5634 51.1314 38.4121 52.3753 39.6485H52.376L56.8406 35.2107C54.6848 33.0676 51.9359 31.6112 48.9442 31.027C45.9524 30.4428 42.8535 30.7574 40.0423 31.9306C37.2312 33.1038 34.8351 35.0825 33.1596 37.6145C31.4841 40.1465 30.605 43.1171 30.6344 46.1477C30.6638 49.1782 31.6003 52.1314 33.3246 54.6308C35.049 57.1302 37.483 59.0626 40.3164 60.1817C43.1498 61.3009 46.2542 61.556 49.234 60.9146C52.2139 60.2732 54.9341 58.7643 57.0479 56.5803V56.5795L52.4992 52.229ZM201.204 30.7132H197.149C194.882 30.7335 192.682 31.4774 190.873 32.835V30.7213H184.559V60.9753H190.873L190.873 42.822C190.877 41.1083 191.564 39.466 192.784 38.2554C194.004 37.0448 195.658 36.3649 197.382 36.3649H201.204L201.204 30.7132ZM134.098 51.2337V42.7891H140.759V37.128H134.098V30.713H127.784V50.4619C127.784 51.8426 128.057 53.2097 128.589 54.4852C129.12 55.7608 129.899 56.9197 130.882 57.896C131.864 58.8722 133.03 59.6467 134.313 60.175C135.596 60.7033 136.971 60.9753 138.36 60.9753H144.149V55.2773H138.166C137.632 55.2773 137.103 55.1727 136.609 54.9695C136.116 54.7663 135.667 54.4684 135.289 54.0929C134.912 53.7174 134.612 53.2717 134.408 52.7811C134.203 52.2905 134.098 51.7647 134.098 51.2337ZM107.531 30.7234C104.934 30.738 102.415 31.601 100.36 33.1795V30.713H94.0445L94.0459 60.975H100.36V43.5224C100.358 42.5847 100.541 41.6557 100.9 40.7886C101.259 39.9216 101.787 39.1334 102.453 38.4695C103.119 37.8055 103.911 37.2787 104.782 36.9192C105.653 36.5598 106.587 36.3747 107.531 36.3747C108.474 36.3747 109.408 36.5598 110.279 36.9192C111.151 37.2787 111.942 37.8055 112.608 38.4695C113.274 39.1334 113.802 39.9216 114.161 40.7886C114.52 41.6557 114.704 42.5847 114.701 43.5224V60.9753H121.016L121.015 44.0836C120.999 40.5376 119.572 37.1418 117.046 34.6384C114.519 32.135 111.098 30.7275 107.531 30.7234ZM162.862 30.713C154.602 30.713 147.882 37.5711 147.882 46.0007C147.882 54.4303 154.602 61.2884 162.862 61.2884C166.717 61.2884 170.607 60.1531 173.268 57.7066L169.375 53.1605C167.527 54.6766 165.711 55.2971 162.862 55.2971C158.256 55.2971 155.315 52.6566 154.304 48.9962L177.552 48.9969C177.745 48.0097 177.842 47.0064 177.842 46.0007C177.842 37.5711 171.122 30.713 162.862 30.713ZM154.253 43.3352C154.713 41.4204 155.817 39.7192 157.383 38.5134C158.949 37.3075 160.882 36.6692 162.862 36.7042C164.851 36.6404 166.8 37.2676 168.374 38.4778C169.948 39.688 171.048 41.4056 171.486 43.3352H154.253Z" fill="#4A24AC"/>
</svg>
